<svg width="175" height="30" viewBox="0 0 175 30" fill="none" xmlns="http://www.w3.org/2000/svg">
<g clip-path="url(#clip0)">
<path d="M14.8594 7.91737H10.5378V1.54321H3.54035V7.91737H0V12.3828H3.54035V21.7613C3.54035 27.4855 5.06317 29.1909 11.0315 29.1909C12.3075 29.1909 13.5834 29.0287 14.8594 28.9876V23.9133C14.2417 23.9133 13.625 23.9945 13.049 23.9945C11.5252 23.9945 10.5378 23.6289 10.5378 21.9645V12.3828H14.8594V7.91737Z" fill="#CCCCCC"/>
<path d="M20.6957 16.3332C21.1071 13.7941 22.7538 12.0613 25.2235 12.0613C27.5692 12.0613 29.2575 13.9954 29.3805 16.3332H20.6957ZM36.3779 20.1624C36.7071 13.0679 32.8792 7.42578 25.2235 7.42578C18.926 7.42578 13.6982 12.0202 13.6982 18.4286C13.6982 25.4419 18.4313 29.5535 25.388 29.5535C30.1627 29.5535 34.7312 27.4572 36.0081 22.6203H29.4628C28.8045 24.1528 27.1577 24.9181 25.4703 24.9181C22.507 24.9181 20.8196 23.024 20.6957 20.1624H36.3779Z" fill="#CCCCCC"/>
<path d="M58.4955 15.6306C58.0018 10.0686 53.2678 7.30762 47.9578 7.30762C41.0843 7.30762 36.7627 12.0985 36.7627 18.7971C36.7627 25.2524 41.5374 29.5976 47.9578 29.5976C53.6386 29.5976 58.0841 26.349 58.7018 20.7058H51.9096C51.5804 22.939 50.3451 24.319 47.9171 24.319C44.9538 24.319 43.7591 21.518 43.7591 18.7971C43.7591 15.8749 44.3778 12.5862 48.2879 12.5862C50.0576 12.5862 51.6627 13.844 51.7034 15.6306H58.4955Z" fill="#CCCCCC"/>
<path d="M58.8516 28.9876H65.85V17.4981C65.85 15.1838 67.002 12.9917 69.6362 12.9917C73.4641 12.9917 73.1349 15.9149 73.1349 18.797V28.9876H80.1323V15.4682C80.1323 12.4238 79.5563 7.3075 72.435 7.3075C69.8831 7.3075 67.002 8.64742 65.9313 10.7995H65.85V0H58.8516V28.9876Z" fill="#CCCCCC"/>
<path d="M80.6636 29.0511H87.662V18.6073C87.662 15.9666 89.4733 13.6093 92.9304 13.6093C93.8772 13.6093 94.7001 13.7715 95.6062 14.0158V7.71692C95.0709 7.59476 94.4948 7.55469 93.9595 7.55469C90.9545 7.55469 88.5672 8.9767 87.5381 11.6585H87.4558V7.96126H80.6636V29.0511Z" fill="#CCCCCC"/>
<path d="M101.688 22.9967C101.688 21.3303 103.005 20.6804 104.569 20.3139C106.093 19.9083 107.903 19.7861 108.891 19.1763C109.056 23.5244 107.945 25.3941 104.611 25.3941C103.047 25.3941 101.688 24.7031 101.688 22.9967ZM102.099 14.4626C102.429 12.6741 103.664 11.8219 105.598 11.8219C107.04 11.8219 108.974 12.4308 108.974 14.016C108.974 15.3158 108.315 15.7224 107.122 15.9667C102.264 16.9411 94.6904 16.4134 94.6904 23.2811C94.6904 27.6292 97.9016 29.6611 101.976 29.6611C104.528 29.6611 107.204 28.9291 109.014 27.0604C109.098 27.7504 109.179 28.4013 109.427 29.0512H116.465C115.642 27.3859 115.642 25.4351 115.642 23.6466V14.4226C115.642 8.44813 110.743 7.35156 105.68 7.35156C103.252 7.35156 100.783 7.75813 98.8891 8.81463C96.9955 9.91119 95.6789 11.6997 95.5549 14.4626H102.099Z" fill="#CCCCCC"/>
<path d="M127.093 12.6125C130.138 12.6125 131.25 15.4203 131.25 18.4716C131.25 21.1573 130.509 24.3717 127.093 24.3717C123.882 24.3717 122.812 21.1573 122.812 18.2683C122.812 15.5826 123.882 12.6125 127.093 12.6125ZM138 0H131.003V10.2121H130.921C129.48 8.30047 127.464 7.32412 124.828 7.32412C118.778 7.32412 115.814 12.5313 115.814 18.0239C115.814 23.9651 118.654 29.661 125.364 29.661C127.833 29.661 129.892 28.6026 131.25 26.6088H131.332V29.0502H138V0Z" fill="#CCCCCC"/>
<path d="M145.086 22.9967C145.086 21.3303 146.402 20.6804 147.967 20.3139C149.49 19.9083 151.301 19.7861 152.288 19.1763C152.453 23.5244 151.342 25.3941 148.008 25.3941C146.444 25.3941 145.086 24.7031 145.086 22.9967ZM145.497 14.4626C145.826 12.6741 147.062 11.8219 148.996 11.8219C150.436 11.8219 152.371 12.4308 152.371 14.016C152.371 15.3158 151.712 15.7224 150.519 15.9667C145.662 16.9411 138.088 16.4134 138.088 23.2811C138.088 27.6292 141.299 29.6611 145.373 29.6611C147.925 29.6611 150.601 28.9291 152.412 27.0604C152.495 27.7504 152.577 28.4013 152.824 29.0512H159.862C159.039 27.3859 159.039 25.4351 159.039 23.6466V14.4226C159.039 8.44813 154.141 7.35156 149.078 7.35156C146.65 7.35156 144.18 7.75813 142.287 8.81463C140.393 9.91119 139.076 11.6997 138.952 14.4626H145.497Z" fill="#CCCCCC"/>
<path d="M160.057 29.0511H167.056V18.6073C167.056 15.9666 168.867 13.6093 172.324 13.6093C173.271 13.6093 174.094 13.7715 175 14.0158V7.71692C174.464 7.59476 173.888 7.55469 173.353 7.55469C170.348 7.55469 167.961 8.9767 166.932 11.6585H166.849V7.96126H160.057V29.0511Z" fill="#CCCCCC"/>
<path fill-rule="evenodd" clip-rule="evenodd" d="M168.211 29.0512H174.986V22.3076H168.211V29.0512Z" fill="#CCCCCC"/>
</g>
<defs>
<clipPath id="clip0">
<rect width="175" height="29.661" fill="white"/>
</clipPath>
</defs>
</svg>
