<svg width="172" height="31" viewBox="0 0 172 31" fill="none" xmlns="http://www.w3.org/2000/svg">
<path d="M0 19.0847L4.31159 18.2C4.94565 20.6014 6.72102 21.8653 10.2717 21.8653C11.7935 21.8653 12.9348 21.6125 13.8225 20.8542C14.7101 20.2222 15.0906 19.4639 15.0906 18.5792C15.0906 17.8208 14.9638 17.3153 14.4565 16.6833C14.0761 16.0514 13.3152 15.6722 12.0471 15.4194L7.35507 14.1556C5.83333 13.7764 4.56522 13.3972 3.80435 12.7653C3.04348 12.1333 2.40942 11.5014 1.90217 10.4903C1.39493 9.47917 1.26812 8.46806 1.26812 7.33056C1.26812 5.18194 2.1558 3.28611 3.67754 2.02222C5.4529 0.758333 7.35507 0 10.0181 0C12.1739 0 14.0761 0.379167 15.7246 1.39028C17.5 2.275 18.3877 3.66528 18.8949 5.18194L14.5833 6.19306C13.9493 4.55 12.4275 3.53889 10.0181 3.53889C8.62319 3.53889 7.6087 3.79167 6.84783 4.42361C6.34058 5.05556 5.83333 5.81389 5.83333 6.69861C5.83333 8.08889 6.97464 9.1 9.25725 9.73195L13.442 10.7431C15.9783 11.375 17.7536 12.2597 18.6413 13.65C19.529 14.9139 19.9094 16.1778 19.9094 17.8208C19.9094 20.2222 19.0217 22.1181 17.2464 23.5083C15.3442 24.8986 13.0616 25.6569 10.1449 25.6569C7.73551 25.6569 5.57971 25.025 3.67754 24.1403C1.90217 22.8764 0.634058 21.3597 0 19.0847Z" fill="#CCCCCC"/>
<path d="M28.4057 25.5306C25.7427 25.5306 23.7137 24.5195 22.1919 22.6237C20.797 20.6014 20.0361 18.4528 20.0361 15.925C20.0361 13.2709 20.797 10.8695 22.3187 9.22643C23.8405 7.3306 25.9963 6.57227 28.6593 6.57227C31.0687 6.57227 33.0977 7.45699 34.6195 9.10004C36.1412 10.8695 36.9021 13.1445 36.9021 15.925C36.9021 18.7056 36.0144 21.107 34.4927 22.75C32.9709 24.5195 30.8151 25.5306 28.4057 25.5306ZM28.5325 22.1181C31.1956 22.1181 32.7173 20.0959 32.7173 15.925C32.7173 14.0292 32.4637 12.6389 31.7028 11.5014C30.9419 10.3639 29.9274 9.98477 28.6593 9.98477C27.2644 9.98477 26.2499 10.6167 25.489 11.7542C24.7282 12.7653 24.3477 14.1556 24.3477 16.0514C24.3477 18.0737 24.7282 19.4639 25.489 20.6014C26.2499 21.4862 27.2644 22.1181 28.5325 22.1181Z" fill="#CCCCCC"/>
<path d="M53.0072 25.025H49.2029V21.2334C48.1884 24.1403 46.1594 25.5306 43.4964 25.5306C41.721 25.5306 40.4529 24.8986 39.4384 24.0139C38.4239 23.0028 38.0435 21.6125 38.0435 19.7167V6.95142H42.2282V18.832C42.2282 20.0959 42.4819 20.9806 43.1159 21.3597C43.75 21.7389 44.2572 21.9917 44.8913 21.9917C45.779 21.9917 46.7935 21.6125 47.5543 20.8542C48.442 19.9695 48.9493 18.3264 48.9493 15.6722V6.95142H53.134V25.025H53.0072Z" fill="#CCCCCC"/>
<path d="M70.2537 25.025H66.0689V13.65C66.0689 12.5125 65.8153 11.5014 65.1812 10.9958C64.5471 10.3639 63.9131 10.1111 63.1522 10.1111C62.1377 10.1111 61.1232 10.4903 60.2355 11.5014C59.6015 12.5125 59.3479 13.7764 59.3479 15.7986V25.025H55.1631V6.95139H58.8406V11.2486C60.1087 8.21527 62.0109 6.69861 64.4203 6.69861C65.9421 6.69861 67.4638 7.33055 68.6051 8.21527C69.7464 9.22639 70.3805 10.8694 70.3805 13.5236V25.025H70.2537Z" fill="#CCCCCC"/>
<path d="M87.6269 25.0251H83.8226V21.3598C82.8081 24.0139 80.9059 25.4042 78.3697 25.4042C76.087 25.4042 74.3117 24.3931 73.1704 22.4973C72.0291 20.6014 71.395 18.3264 71.395 15.5459C71.395 13.0181 72.0291 10.7431 73.2972 8.84728C74.5653 6.95145 76.3407 5.94034 78.6233 5.94034C80.9059 5.94034 82.6813 6.95145 83.4421 9.10006V0.505615H87.6269V25.0251ZM83.5689 14.4084C83.5689 13.0181 83.3153 11.8806 82.5544 10.9959C81.7936 10.1112 81.0327 9.732 79.8914 9.732C78.7501 9.732 77.7356 10.3639 76.9747 11.2487C76.087 12.2598 75.8334 13.7764 75.8334 15.9251C75.8334 19.9695 77.1015 22.1181 79.6378 22.1181C80.6523 22.1181 81.5399 21.739 82.3008 20.8542C83.0617 19.9695 83.4421 18.832 83.4421 17.5681V14.4084H83.5689Z" fill="#CCCCCC"/>
<path d="M90.1631 25.0251V0.505615H99.8008C101.323 0.505615 102.844 0.632004 103.859 1.13756C104.873 1.39034 105.888 2.14867 106.522 3.28617C107.283 4.29728 107.663 5.56117 107.663 6.95145C107.663 8.21534 107.283 9.47923 106.522 10.4903C105.634 11.5014 104.62 12.007 103.225 12.3862C105 12.6389 106.268 13.3973 107.029 14.5348C107.917 15.6723 108.297 16.9362 108.297 18.3264C108.297 20.2223 107.663 21.7389 106.395 23.0028C105.127 24.2667 103.225 25.0251 100.688 25.0251H90.1631ZM94.3479 10.7431H99.8008C100.942 10.7431 101.83 10.4903 102.337 9.732C102.971 8.97367 103.351 8.21534 103.351 7.20423C103.351 6.06673 102.971 5.182 102.21 4.80284C101.449 4.17089 100.688 3.91812 99.674 3.91812H94.3479V10.7431V10.7431ZM94.3479 21.3598H100.054C101.196 21.3598 102.21 21.107 102.971 20.3487C103.732 19.7167 103.986 18.9584 103.986 17.8209C103.986 16.8098 103.605 15.9251 102.971 15.2931C102.21 14.5348 101.196 14.282 100.054 14.282H94.3479V21.3598Z" fill="#CCCCCC"/>
<path d="M121.612 19.2111L125.29 19.8431C124.909 21.6125 123.895 22.8764 122.373 24.0139C120.978 25.025 119.203 25.5306 117.047 25.5306C114.511 25.5306 112.482 24.6458 110.833 23.0028C109.312 21.2333 108.551 18.9583 108.551 16.1778C108.551 13.5236 109.312 11.1222 110.833 9.35277C112.609 7.45694 114.638 6.69861 117.301 6.69861C119.964 6.69861 121.866 7.58333 123.261 9.35277C124.656 11.1222 125.417 13.3972 125.417 16.1778V16.5569H112.989C112.989 17.8208 113.116 18.8319 113.243 19.5903C113.496 20.3486 114.004 20.9806 114.638 21.6125C115.399 22.2444 116.159 22.4972 117.174 22.4972C119.583 22.2444 120.852 21.2333 121.612 19.2111ZM121.232 13.7764C121.232 12.5125 120.852 11.375 120.091 10.6167C119.33 9.73194 118.315 9.35277 117.174 9.35277C116.033 9.35277 115.018 9.73194 114.257 10.4903C113.496 11.2486 113.116 12.3861 112.989 13.7764H121.232Z" fill="#CCCCCC"/>
<path d="M135.181 21.7389V24.8986C133.913 25.1514 133.025 25.2778 132.264 25.2778C131.123 25.2778 130.235 25.025 129.348 24.5194C128.46 24.1403 127.953 23.5083 127.572 22.6236C127.192 21.8653 126.938 20.6014 126.938 19.0847V10.1111H124.656V6.95138H127.192L127.572 2.27499L130.996 2.02222V7.07777H134.674V10.2375H130.996V19.0847C130.996 20.2222 131.123 20.9806 131.63 21.3597C132.011 21.7389 132.772 21.9917 133.913 21.9917C134.42 21.9917 134.801 21.9917 135.181 21.7389Z" fill="#CCCCCC"/>
<path d="M144.946 21.7389V24.8986C143.678 25.1514 142.79 25.2778 142.029 25.2778C140.888 25.2778 140 25.025 139.112 24.5194C138.225 24.1403 137.718 23.5083 137.337 22.6236C136.957 21.8653 136.703 20.6014 136.703 19.0847V10.1111H134.42V6.95138H136.957L137.337 2.27499L140.761 2.02222V7.07777H144.439V10.2375H140.761V19.0847C140.761 20.2222 140.888 20.9806 141.395 21.3597C141.775 21.7389 142.536 21.9917 143.678 21.9917C144.185 21.9917 144.692 21.9917 144.946 21.7389Z" fill="#CCCCCC"/>
<path d="M157.12 19.2111L160.797 19.8431C160.417 21.6125 159.402 22.8764 157.881 24.0139C156.486 25.025 154.71 25.5306 152.554 25.5306C150.018 25.5306 147.989 24.6458 146.341 23.0028C144.819 21.2333 144.058 18.9583 144.058 16.1778C144.058 13.5236 144.819 11.1222 146.341 9.35277C147.862 7.58333 150.018 6.69861 152.681 6.69861C155.344 6.69861 157.247 7.58333 158.641 9.35277C160.036 11.1222 160.797 13.3972 160.797 16.1778V16.5569H148.37C148.37 17.8208 148.497 18.8319 148.623 19.5903C148.877 20.3486 149.384 20.9806 150.018 21.6125C150.779 22.2444 151.54 22.4972 152.554 22.4972C154.964 22.2444 156.359 21.2333 157.12 19.2111ZM156.866 13.7764C156.866 12.5125 156.486 11.375 155.725 10.6167C154.964 9.73194 153.949 9.35277 152.808 9.35277C151.667 9.35277 150.652 9.73194 149.891 10.4903C149.131 11.2486 148.75 12.3861 148.623 13.7764H156.866Z" fill="#CCCCCC"/>
<path d="M166.377 25.025H162.192V6.95136H165.869V11.2486C166.503 9.47913 167.138 8.21525 168.025 7.5833C168.913 6.82497 169.927 6.4458 170.942 6.4458C171.069 6.4458 171.196 6.4458 171.576 6.4458V10.8694C169.42 10.8694 168.152 11.6277 167.391 12.8916C166.63 14.1555 166.377 15.4194 166.377 16.6833V25.025V25.025Z" fill="#CCCCCC"/>
<path d="M108.804 27.3H73.0435V30.207H108.804V27.3Z" fill="#CCCCCC"/>
</svg>
